<svg xmlns="http://www.w3.org/2000/svg" width="1307" height="262" viewBox="0 0 1307 262"><defs><clipPath id="7l8ka"><path fill="#fff" d="M219 128s70.389-41.319 177-45c124.601-4.303 219 76 219 76"/></clipPath><clipPath id="7l8kb"><path fill="#fff" d="M447 85s48.486-47.745 117-45c68.514 2.745 94.677 34.905 137.622 56.755 64.309 32.719 163.04-10.332 240.114-.731C1046.17 109.033 1095 155.949 1095 155.949"/></clipPath><clipPath id="7l8kc"><path fill="#fff" d="M187 259s173-101 353-104 316 104 316 104"/></clipPath><clipPath id="7l8kd"><path fill="#fff" d="M802 225s130.055-72.067 249-73c118.945-.933 253 109 253 109"/></clipPath><clipPath id="7l8ke"><path fill="#fff" d="M663 74s37-41 89-38 87 33 87 33"/></clipPath><clipPath id="7l8kf"><path fill="#fff" d="M795 108s58-69 123-64c56.826 4.371 97 43 97 43"/></clipPath><clipPath id="7l8kg"><path fill="#fff" d="M992 106s30.048-33.424 61-33c30.952.424 60 28 60 28"/></clipPath><clipPath id="7l8kh"><path fill="#fff" d="M345 192s-132-81-203-78S1 171 1 171"/></clipPath><clipPath id="7l8ki"><path fill="#fff" d="M33.895 107s1.813-9.382 8.684-8.879c5.805.426 8.482 8.45 8.684 8.287"/></clipPath><clipPath id="7l8kj"><path fill="#fff" d="M46.632 99.897s1.812-9.382 8.684-8.879c5.805.426 8.481 8.45 8.684 8.287"/></clipPath><clipPath id="7l8kk"><path fill="#fff" d="M20 99.897s1.813-9.382 8.684-8.879c5.805.426 8.482 8.45 8.684 8.287"/></clipPath><clipPath id="7l8kl"><path fill="#fff" d="M1199.166 60.831s2.37-12.215 11.354-11.56c7.59.555 11.09 11.002 11.354 10.79"/></clipPath><clipPath id="7l8km"><path fill="#fff" d="M1215.819 51.584s2.37-12.216 11.354-11.56c7.59.554 11.089 11.001 11.354 10.789"/></clipPath><clipPath id="7l8kn"><path fill="#fff" d="M1181 51.584s2.37-12.216 11.354-11.56c7.59.554 11.09 11.001 11.354 10.789"/></clipPath><clipPath id="7l8ko"><path fill="#fff" d="M1096 114s35.702-31.317 55-31c21.375.35 55 30 55 30"/></clipPath><clipPath id="7l8kp"><path fill="#fff" d="M1156 137s54.94-30.487 77-31c22.06-.513 73 32 73 32"/></clipPath></defs><g><g opacity=".3"><g opacity=".3"><path fill="none" stroke="grey" stroke-linecap="round" stroke-linejoin="round" stroke-miterlimit="50" stroke-width="4" d="M219 128v0s70.389-41.319 177-45c124.601-4.303 219 76 219 76v0" clip-path="url(&quot;#7l8ka&quot;)"/></g><g opacity=".3"><path fill="none" stroke="grey" stroke-linecap="round" stroke-linejoin="round" stroke-miterlimit="50" stroke-width="4" d="M447 85v0s48.486-47.745 117-45c68.514 2.745 94.677 34.905 137.622 56.755 64.309 32.719 163.04-10.332 240.114-.731C1046.17 109.033 1095 155.949 1095 155.949v0" clip-path="url(&quot;#7l8kb&quot;)"/></g><g opacity=".3"><path fill="none" stroke="grey" stroke-miterlimit="50" stroke-width="4" d="M187 259v0s173-101 353-104 316 104 316 104v0" clip-path="url(&quot;#7l8kc&quot;)"/></g><g opacity=".3"><path fill="none" stroke="grey" stroke-miterlimit="50" stroke-width="4" d="M802 225v0s130.055-72.067 249-73c118.945-.933 253 109 253 109v0" clip-path="url(&quot;#7l8kd&quot;)"/></g><g opacity=".3"><path fill="none" stroke="grey" stroke-miterlimit="50" stroke-width="4" d="M663 74v0s37-41 89-38 87 33 87 33v0" clip-path="url(&quot;#7l8ke&quot;)"/></g><g opacity=".3"><path fill="none" stroke="grey" stroke-miterlimit="50" stroke-width="4" d="M795 108v0s58-69 123-64c56.826 4.371 97 43 97 43v0" clip-path="url(&quot;#7l8kf&quot;)"/></g><g opacity=".3"><path fill="none" stroke="grey" stroke-miterlimit="50" stroke-width="4" d="M992 106v0s30.048-33.424 61-33c30.952.424 60 28 60 28v0" clip-path="url(&quot;#7l8kg&quot;)"/></g><g opacity=".3"><path fill="none" stroke="grey" stroke-miterlimit="50" stroke-width="4" d="M345 192v0s-132-81-203-78S1 171 1 171v0" clip-path="url(&quot;#7l8kh&quot;)"/></g><g opacity=".3"><path fill="none" stroke="grey" stroke-miterlimit="50" stroke-width="2" d="M33.895 107v0s1.813-9.382 8.684-8.879c5.805.426 8.482 8.45 8.684 8.287" clip-path="url(&quot;#7l8ki&quot;)"/></g><g opacity=".3"><path fill="none" stroke="grey" stroke-linecap="round" stroke-linejoin="round" stroke-miterlimit="50" stroke-width="2" d="M46.632 99.897v0s1.812-9.382 8.684-8.879c5.805.426 8.481 8.45 8.684 8.287" clip-path="url(&quot;#7l8kj&quot;)"/></g><g opacity=".3"><path fill="none" stroke="grey" stroke-linecap="round" stroke-linejoin="round" stroke-miterlimit="50" stroke-width="2" d="M20 99.897v0s1.813-9.382 8.684-8.879c5.805.426 8.482 8.45 8.684 8.287" clip-path="url(&quot;#7l8kk&quot;)"/></g><g opacity=".3"><path fill="none" stroke="grey" stroke-linecap="round" stroke-linejoin="round" stroke-miterlimit="50" stroke-width="2" d="M1199.166 60.831v0s2.37-12.215 11.354-11.56c7.59.555 11.09 11.002 11.354 10.79" clip-path="url(&quot;#7l8kl&quot;)"/></g><g opacity=".3"><path fill="none" stroke="grey" stroke-linecap="round" stroke-linejoin="round" stroke-miterlimit="50" stroke-width="2" d="M1215.819 51.584v0s2.37-12.216 11.354-11.56c7.59.554 11.089 11.001 11.354 10.789" clip-path="url(&quot;#7l8km&quot;)"/></g><g opacity=".3"><path fill="none" stroke="grey" stroke-linecap="round" stroke-linejoin="round" stroke-miterlimit="50" stroke-width="2" d="M1181 51.584v0s2.37-12.216 11.354-11.56c7.59.554 11.09 11.001 11.354 10.789" clip-path="url(&quot;#7l8kn&quot;)"/></g><g opacity=".3"><path fill="none" stroke="grey" stroke-linecap="round" stroke-linejoin="round" stroke-miterlimit="50" stroke-width="4" d="M1096 114v0s35.702-31.317 55-31c21.375.35 55 30 55 30v0" clip-path="url(&quot;#7l8ko&quot;)"/></g><g opacity=".3"><path fill="none" stroke="grey" stroke-linecap="round" stroke-linejoin="round" stroke-miterlimit="50" stroke-width="4" d="M1156 137v0s54.94-30.487 77-31c22.06-.513 73 32 73 32v0" clip-path="url(&quot;#7l8kp&quot;)"/></g><g opacity=".3"><path d="M164.82 87.724v-9.343a1.245 1.245 0 1 1 2.489 0v9.343l8.091 4.672a1.244 1.244 0 1 1-1.244 2.156l-8.092-4.672-8.092 4.672a1.244 1.244 0 0 1-1.245-2.156zm-56.676 6.372a1.244 1.244 0 0 1 .456-1.7l8.092-4.672v-9.343a1.245 1.245 0 1 1 2.49 0v9.343l8.091 4.672a1.244 1.244 0 1 1-1.245 2.156l-8.092-4.672-8.092 4.672a1.244 1.244 0 0 1-1.7-.456zm16.915-19.754a1.245 1.245 0 0 1 .456-1.7l12.815-7.399a3.74 3.74 0 0 1 2.426-4.202V46.244a1.245 1.245 0 1 1 2.489 0v14.797a3.74 3.74 0 0 1 2.426 4.202l12.814 7.399a1.245 1.245 0 0 1-1.244 2.156l-12.817-7.4c-.653.559-1.5.897-2.424.897a3.715 3.715 0 0 1-2.424-.897l-12.816 7.4a1.244 1.244 0 0 1-1.7-.455zm15.696-9.78a1.246 1.246 0 0 0 2.49 0c0-.687-.558-1.245-1.245-1.245-.686 0-1.245.558-1.245 1.244zm-24.063 51.01v-22.15a1.245 1.245 0 1 1 2.489 0v21.444a87.717 87.717 0 0 1 21.574-2.97V72.03a1.245 1.245 0 1 1 2.49 0v39.867a87.733 87.733 0 0 1 21.574 2.968V93.422a1.245 1.245 0 1 1 2.49 0v22.15c-37.662-5.532-47.292 2.028-50.617 0z"/></g><g opacity=".3"><path d="M426.82 57.724v-9.343a1.245 1.245 0 1 1 2.489 0v9.343l8.091 4.672a1.245 1.245 0 0 1-1.244 2.156l-8.092-4.672-8.092 4.672a1.244 1.244 0 0 1-1.245-2.156zm-56.676 6.373a1.245 1.245 0 0 1 .456-1.7l8.092-4.673v-9.343a1.245 1.245 0 1 1 2.49 0v9.343l8.09 4.672a1.245 1.245 0 0 1-1.244 2.156l-8.092-4.672-8.092 4.672a1.244 1.244 0 0 1-1.7-.455zm16.915-17.755a1.244 1.244 0 0 1 .456-1.7l12.815-7.399a3.74 3.74 0 0 1 2.426-4.202V18.244a1.245 1.245 0 1 1 2.489 0v14.797a3.74 3.74 0 0 1 2.426 4.202l12.814 7.399a1.244 1.244 0 1 1-1.244 2.156l-12.817-7.4c-.653.559-1.5.897-2.424.897a3.717 3.717 0 0 1-2.424-.897l-12.816 7.4a1.244 1.244 0 0 1-1.7-.456zm15.696-9.78c0 .686.559 1.244 1.245 1.244.687 0 1.245-.558 1.245-1.244 0-.687-.558-1.245-1.245-1.245-.686 0-1.245.558-1.245 1.245zM404 85c-17.421-.053-22.891 2.046-25.308.573V63.422a1.245 1.245 0 1 1 2.489 0v21.444c6.986-1.873 14.197-.869 21.574-.97V44.03a1.245 1.245 0 1 1 2.49 0v39.868c7.377.1 14.588-.904 21.574.968V63.422a1.245 1.245 0 1 1 2.49 0v22.15c-10.288-1.51-18.762-.553-25.31-.572z"/></g><g opacity=".3"><path d="M926.422 27.714v-6.358c0-.468.377-.847.842-.847.464 0 .84.38.84.847v6.358l5.47 3.18a.85.85 0 0 1 .308 1.157.84.84 0 0 1-1.15.31l-5.468-3.18-5.47 3.18a.834.834 0 0 1-1.148-.31.85.85 0 0 1 .307-1.157zm-38.303 4.337a.85.85 0 0 1 .308-1.157l5.468-3.18v-6.358c0-.468.377-.847.842-.847.464 0 .84.38.84.847v6.358l5.47 3.18a.85.85 0 0 1 .308 1.157.84.84 0 0 1-1.15.31l-5.468-3.18-5.47 3.18a.834.834 0 0 1-1.148-.31zM899.55 19.97a.85.85 0 0 1 .308-1.158l8.66-5.035a2.544 2.544 0 0 1 1.64-2.86V.847c0-.467.376-.846.841-.846.465 0 .841.38.841.847v10.07a2.544 2.544 0 0 1 1.64 2.86l8.66 5.034a.85.85 0 0 1 .308 1.158.84.84 0 0 1-1.149.31l-8.662-5.036a2.5 2.5 0 0 1-3.276 0l-8.662 5.036a.834.834 0 0 1-1.15-.31zm10.608-6.657c0 .467.377.847.841.847.464 0 .841-.38.841-.847a.845.845 0 0 0-.84-.847.845.845 0 0 0-.842.847zM911 46.277c-11.774-.036-15.471 1.392-17.105.39V31.591c0-.468.377-.847.842-.847.464 0 .84.38.84.847v14.593c4.722-1.274 9.596-.59 14.582-.659V18.395c0-.468.376-.848.841-.848.465 0 .841.38.841.848v27.131c4.986.069 9.86-.615 14.581.66V31.591c0-.468.377-.847.841-.847.465 0 .842.38.842.847v15.074c-6.953-1.028-12.68-.376-17.105-.39z"/></g><g opacity=".3"><path d="M758.22 26.1v-3.923c0-.289.237-.523.53-.523.293 0 .53.234.53.523V26.1l3.451 1.962c.254.145.34.464.194.714a.532.532 0 0 1-.725.192l-3.45-1.962-3.45 1.962a.534.534 0 0 1-.725-.192.519.519 0 0 1 .194-.714zm-24.165 2.676a.519.519 0 0 1 .194-.714l3.45-1.962v-3.923c0-.289.238-.523.531-.523.293 0 .53.234.53.523V26.1l3.451 1.962c.254.145.34.464.194.714a.532.532 0 0 1-.725.192l-3.45-1.962-3.45 1.962a.534.534 0 0 1-.725-.192zm7.212-7.455a.518.518 0 0 1 .194-.714l5.464-3.107a1.572 1.572 0 0 1 1.034-1.764V9.522c0-.288.238-.522.531-.522.293 0 .53.234.53.522v6.214a1.572 1.572 0 0 1 1.035 1.764l5.464 3.107c.254.144.34.464.194.714a.532.532 0 0 1-.725.191l-5.464-3.107a1.6 1.6 0 0 1-1.034.377 1.6 1.6 0 0 1-1.033-.377l-5.465 3.107a.534.534 0 0 1-.725-.191zm6.693-4.107c0 .288.238.523.53.523.293 0 .53-.235.53-.523a.527.527 0 0 0-.53-.523.527.527 0 0 0-.53.523zm.53 20.34c-7.428-.022-9.76.859-10.79.24v-9.301c0-.289.237-.523.53-.523.293 0 .53.234.53.523v9.004c2.98-.786 6.054-.364 9.2-.407V20.35c0-.289.237-.523.53-.523.293 0 .53.234.53.523v16.74c3.146.043 6.22-.379 9.2.407v-9.004c0-.289.237-.523.53-.523.293 0 .53.234.53.523v9.301c-4.385-.634-7.998-.232-10.79-.24z"/></g></g></g></svg>